<svg id="Layer_2" data-name="Layer 2" xmlns="http://www.w3.org/2000/svg" width="73" height="91.556" viewBox="0 0 73 91.556">
  <g id="Layer_1" data-name="Layer 1">
    <path id="Path_5" data-name="Path 5" d="M0,107.69c.041-.124.09-.238.124-.359a3.508,3.508,0,0,1,2.517-2.751,3.43,3.43,0,0,1,4.26,2.713,6.043,6.043,0,0,1,.071.947v17.34A4.893,4.893,0,0,0,8.479,129.2q3.313,3.291,6.606,6.6l1.4,1.409a1.972,1.972,0,0,0,.957.571,1.864,1.864,0,0,0,2.212-2.439,2.21,2.21,0,0,0-.578-.889l-5.088-5.088a4.472,4.472,0,0,1-1.285-2.492,3.9,3.9,0,0,1,3.486-4.509,3.955,3.955,0,0,1,3.2,1.123c.087.082.171.165.255.248q6.467,6.468,12.937,12.933a5.665,5.665,0,0,1,1.724,4.166v17.7a4.475,4.475,0,0,1-.195,1.466,4.087,4.087,0,0,1-3.481,2.891,3.952,3.952,0,0,1-3.516-1.211q-12.451-12.451-24.9-24.906a7.376,7.376,0,0,1-2.107-4.3,4.676,4.676,0,0,0-.11-.46Z" transform="translate(0 -91.509)" fill="#fff"/>
    <path id="Path_6" data-name="Path 6" d="M346.841,131.709a2.507,2.507,0,0,0-.045.288,7.269,7.269,0,0,1-1.927,4.622c-.112.124-.231.248-.349.366l-24.664,24.67a4.361,4.361,0,0,1-2.215,1.254,4.211,4.211,0,0,1-5.012-3.522,5.42,5.42,0,0,1-.046-.68V140.831a5.55,5.55,0,0,1,1.662-4.065L327.308,123.7a4.18,4.18,0,0,1,2.251-1.239,3.909,3.909,0,0,1,4.625,4.368,4.364,4.364,0,0,1-1.29,2.583q-2.6,2.6-5.2,5.193a1.915,1.915,0,0,0-.609,1.315,1.859,1.859,0,0,0,2.649,1.77,2.29,2.29,0,0,0,.654-.452q4.1-4.08,8.18-8.18a4.483,4.483,0,0,0,1.329-3.245V108.3a4.3,4.3,0,0,1,.234-1.548,3.47,3.47,0,0,1,3.028-2.24,3.421,3.421,0,0,1,3.3,2.007,2.889,2.889,0,0,1,.325,1.226,1.941,1.941,0,0,0,.056.294Z" transform="translate(-273.841 -91.553)" fill="#fff"/>
    <path id="Path_7" data-name="Path 7" d="M382.991,0a1.067,1.067,0,0,1,.565.606,8.333,8.333,0,0,0,4.338,4.325l.083.033a.692.692,0,0,1,.479.652.712.712,0,0,1-.483.68,8.359,8.359,0,0,0-4.467,4.47.7.7,0,0,1-.678.483.707.707,0,0,1-.668-.5,8.343,8.343,0,0,0-3.525-3.985c-.316-.183-.652-.333-.983-.5a.686.686,0,0,1-.439-.62A.658.658,0,0,1,377.6,5c.131-.069.271-.124.405-.186A8.334,8.334,0,0,0,382.12.595,1,1,0,0,1,382.694,0Z" transform="translate(-330.461)" fill="#fff"/>
    <path id="Path_8" data-name="Path 8" d="M183.991,678.805c-.248-.073-.5-.141-.737-.223-.138-.047-.266-.124-.425-.192l.5-1.084c.088.03.16.058.233.078a3.551,3.551,0,0,0,.486.124.905.905,0,0,0,1.032-.612.362.362,0,0,0-.046-.307q-.62-1.487-1.231-2.965l-1.224-2.934c-.041-.1-.078-.2-.124-.322a3.4,3.4,0,0,1,.773-.032c.25-.007.514,0,.8,0l1.785,4.681h.064l1.636-4.668h1.537c-.041.117-.071.208-.105.3q-1.2,3.119-2.414,6.235a7.3,7.3,0,0,1-.462.962,1.761,1.761,0,0,1-1.115.867,1.066,1.066,0,0,0-.183.084Z" transform="translate(-159.837 -587.249)" fill="#fff"/>
    <path id="Path_9" data-name="Path 9" d="M172.735,53.008a1.184,1.184,0,0,1,.809-1.163c.628-.24,1.27-.455,1.88-.736A21.464,21.464,0,0,0,187.03,38.5c.03-.083.058-.169.092-.248a1.189,1.189,0,0,1,2.215.022c.278.7.517,1.417.837,2.1a21.406,21.406,0,0,0,12.551,11.426c.093.033.188.064.276.107a1.192,1.192,0,0,1-.029,2.18c-.144.066-.3.105-.447.159a21.616,21.616,0,0,0-13.1,13.212,3.468,3.468,0,0,1-.124.333,1.186,1.186,0,0,1-2.164-.016c-.1-.226-.165-.467-.255-.7a21.5,21.5,0,0,0-13.207-12.909,1.377,1.377,0,0,1-.744-.509,1.08,1.08,0,0,1-.2-.642Z" transform="translate(-151.326 -32.854)" fill="#fff"/>
    <path id="Path_10" data-name="Path 10" d="M431.551,653.751V650.42H433v8.9c-.068.006-.124.016-.181.018h-1.267v-.985a.964.964,0,0,0-.16.124,2.762,2.762,0,0,1-4.439-.227,3.788,3.788,0,0,1-.61-2.547,3.523,3.523,0,0,1,.45-1.5,2.911,2.911,0,0,1,3.346-1.363,2.633,2.633,0,0,1,1.145.718c.068.069.134.141.2.211Zm.01,2.574a2.389,2.389,0,0,0-.477-1.631,1.788,1.788,0,0,0-2.931.2,2.3,2.3,0,0,0,.02,2.459,1.77,1.77,0,0,0,2.851.248A2.028,2.028,0,0,0,431.56,656.326Z" transform="translate(-373.491 -569.808)" fill="#fff"/>
    <path id="Path_11" data-name="Path 11" d="M127.494,659.369h-1.455v-1.005c-.093.1-.134.136-.169.18a2.733,2.733,0,0,1-4.115.107,3.21,3.21,0,0,1-.859-1.761,4.1,4.1,0,0,1,.248-2.331,2.917,2.917,0,0,1,3.506-1.67,2.623,2.623,0,0,1,1.141.724c.061.063.124.124.227.248.032-.317.014-.587.017-.855V650.46h1.46Zm-5.194-3.282c.043.28.058.5.11.709a1.859,1.859,0,0,0,1.6,1.439,1.806,1.806,0,0,0,1.788-.992,2.247,2.247,0,0,0-.063-2.3,1.8,1.8,0,0,0-3.236.3A6.046,6.046,0,0,0,122.3,656.087Z" transform="translate(-105.857 -569.843)" fill="#fff"/>
    <path id="Path_12" data-name="Path 12" d="M257.661,659.209H256.23c-.063-.224-.092-8.154-.033-8.874a5.4,5.4,0,0,1,1.466-.012v3.367c.113-.124.177-.2.238-.271a2.411,2.411,0,0,1,2.9-.556,1.937,1.937,0,0,1,1.015,1.222,2.962,2.962,0,0,1,.14.815c.014,1.387.006,2.774.006,4.161,0,.04-.008.078-.012.138H260.5c0-.1-.012-.2-.012-.309v-3.151a3.594,3.594,0,0,0-.074-.766,1.188,1.188,0,0,0-1.078-.992,1.391,1.391,0,0,0-1.479.713,1.67,1.67,0,0,0-.187.772q0,1.694-.006,3.388Z" transform="translate(-224.416 -569.684)" fill="#fff"/>
    <path id="Path_13" data-name="Path 13" d="M315.773,672.3a1.276,1.276,0,0,0-1.265-1.487,4.133,4.133,0,0,0-1.838.265c-.09.035-.183.067-.316.115-.124-.382-.255-.751-.379-1.115.027-.035.041-.067.064-.077a5.263,5.263,0,0,1,3.364-.379,2.192,2.192,0,0,1,1.774,1.889,3.692,3.692,0,0,1,.06.651v3.628c0,.077-.007.154-.011.248h-1.438v-.728l-.288.248a2.852,2.852,0,0,1-3.121.321,1.854,1.854,0,0,1-.97-1.859,1.8,1.8,0,0,1,1.081-1.611,3.539,3.539,0,0,1,1.827-.3C314.8,672.144,315.273,672.234,315.773,672.3Zm.016.991a3.8,3.8,0,0,0-1.555-.248,1.94,1.94,0,0,0-.8.175.969.969,0,0,0-.581.979.936.936,0,0,0,.7.834,1.9,1.9,0,0,0,.967.052,1.417,1.417,0,0,0,1.279-1.786Z" transform="translate(-272.808 -586.52)" fill="#fff"/>
    <path id="Path_14" data-name="Path 14" d="M376.445,675.677h-1.46V672.2a3.49,3.49,0,0,0-.067-.737,1.193,1.193,0,0,0-1.093-1.013,1.346,1.346,0,0,0-1.479.754,1.989,1.989,0,0,0-.17.744c-.02,1.13-.012,2.261-.014,3.391v.333H370.7v-6.429c.473-.01.943,0,1.445,0v.835l.055.025c.056-.058.115-.113.166-.175a2.386,2.386,0,0,1,2.7-.7,1.859,1.859,0,0,1,1.195,1.164,2.974,2.974,0,0,1,.2.953c.021,1.4.01,2.795.01,4.193A1.183,1.183,0,0,1,376.445,675.677Z" transform="translate(-324.756 -586.152)" fill="#fff"/>
    <path id="Path_15" data-name="Path 15" d="M493.631,670.11l-.586,1.047c-.108-.055-.195-.1-.28-.14a3.817,3.817,0,0,0-1.373-.446,1.3,1.3,0,0,0-.7.1.542.542,0,0,0-.092.992,3.323,3.323,0,0,0,.643.3c.295.111.6.192.9.3a6.612,6.612,0,0,1,.731.326,1.81,1.81,0,0,1,.124,3.052,2.556,2.556,0,0,1-1.105.4,4.422,4.422,0,0,1-3.255-.928l.661-1.006c.145.092.268.172.393.248a3.188,3.188,0,0,0,1.859.529,1.616,1.616,0,0,0,.486-.116.571.571,0,0,0,.372-.527.536.536,0,0,0-.3-.536,3.711,3.711,0,0,0-.569-.248c-.309-.107-.626-.187-.934-.295a5.031,5.031,0,0,1-.71-.3,1.76,1.76,0,0,1-.456-2.8,2.129,2.129,0,0,1,1.3-.659A4.237,4.237,0,0,1,493.631,670.11Z" transform="translate(-428.079 -586.416)" fill="#fff"/>
    <path id="Path_16" data-name="Path 16" d="M59.59,664.205a2.749,2.749,0,0,1-2.188.19,1.415,1.415,0,0,1-.962-1.216,3.28,3.28,0,0,1-.041-.563v-3.383H55.59v-1.272h.8V656.2h1.471v1.744c.587.03,1.158,0,1.735.02v1.257H57.9a1.612,1.612,0,0,0-.031.213v2.94c.02.529.209.883.97.815a5.488,5.488,0,0,0,.73-.164,1.224,1.224,0,0,1,.015.145C59.59,663.511,59.59,663.848,59.59,664.205Z" transform="translate(-48.7 -574.871)" fill="#fff"/>
    <path id="Path_17" data-name="Path 17" d="M98.392,670.52h1.424v6.411H98.4C98.343,676.719,98.332,670.853,98.392,670.52Z" transform="translate(-86.162 -587.417)" fill="#fff"/>
    <path id="Path_18" data-name="Path 18" d="M98,652.379V651h1.549v1.375Z" transform="translate(-85.854 -570.316)" fill="#fff"/>
  </g>
</svg>
