<svg xmlns="http://www.w3.org/2000/svg" xmlns:xlink="http://www.w3.org/1999/xlink" width="40.397" height="52.679" viewBox="0 0 40.397 52.679"><defs><style>.a{fill:url(#a);}</style><linearGradient id="a" x1="0.5" x2="0.5" y2="1" gradientUnits="objectBoundingBox"><stop offset="0" stop-color="#2a82d9"/><stop offset="1" stop-color="#055eb7"/></linearGradient></defs><path class="a" d="M20.2,42.143a3.978,3.978,0,0,1-3.889-2.916A2.3,2.3,0,0,0,12.7,38.051a4.058,4.058,0,0,1-6.3-4.581,2.307,2.307,0,0,0-2.23-3.082,4.064,4.064,0,0,1-2.4-7.413,2.274,2.274,0,0,0,1-1.9,2.279,2.279,0,0,0-1-1.9,4.064,4.064,0,0,1,2.4-7.413A2.307,2.307,0,0,0,6.407,8.673,3.989,3.989,0,0,1,7.851,4.019a3.973,3.973,0,0,1,4.851.073,2.3,2.3,0,0,0,3.607-1.176,4.052,4.052,0,0,1,7.779,0,2.273,2.273,0,0,0,1.5,1.543,2.259,2.259,0,0,0,2.109-.366,3.972,3.972,0,0,1,4.85-.073,3.991,3.991,0,0,1,1.444,4.654,2.307,2.307,0,0,0,2.229,3.082,4.064,4.064,0,0,1,2.4,7.413,2.312,2.312,0,0,0,0,3.809,4.064,4.064,0,0,1-2.4,7.413,2.307,2.307,0,0,0-2.229,3.082,4.057,4.057,0,0,1-6.294,4.581,2.3,2.3,0,0,0-3.607,1.176A3.979,3.979,0,0,1,20.2,42.143ZM14.1,35.816a4.057,4.057,0,0,1,3.889,2.917,2.3,2.3,0,0,0,4.41,0,4.052,4.052,0,0,1,6.364-2.072,2.3,2.3,0,0,0,3.566-2.6,4.068,4.068,0,0,1,.544-3.755,3.987,3.987,0,0,1,3.389-1.668,2.309,2.309,0,0,0,1.362-4.211,4.068,4.068,0,0,1,0-6.7,2.309,2.309,0,0,0-1.362-4.211,4.062,4.062,0,0,1-3.933-5.423,2.3,2.3,0,0,0-3.566-2.6A4.052,4.052,0,0,1,22.4,3.409a2.3,2.3,0,0,0-4.409,0A4.052,4.052,0,0,1,11.63,5.483a2.226,2.226,0,0,0-2.747-.041,2.244,2.244,0,0,0-.82,2.644,4.071,4.071,0,0,1-.543,3.755A4,4,0,0,1,4.13,13.51,2.219,2.219,0,0,0,1.881,15.1a2.244,2.244,0,0,0,.887,2.621,4.068,4.068,0,0,1,0,6.7,2.309,2.309,0,0,0,1.362,4.211,4.062,4.062,0,0,1,3.932,5.423,2.3,2.3,0,0,0,3.567,2.6,4.053,4.053,0,0,1,2.474-.844Z" transform="translate(0.002 0)"/><path class="a" d="M21.175,35.339a13.17,13.17,0,1,1,13.17-13.17A13.185,13.185,0,0,1,21.175,35.339Zm0-24.584A11.414,11.414,0,1,0,32.589,22.17,11.427,11.427,0,0,0,21.175,10.756Z" transform="translate(-0.975 -1.098)"/><path class="a" d="M33.855,57.656a.877.877,0,0,1-.764-.446L25.7,44.129a.881.881,0,0,1-.054-.75,4.048,4.048,0,0,1,6.245-1.741,2.248,2.248,0,0,0,3.1-.277.879.879,0,0,1,1.4.154l6.131,10.429a.878.878,0,0,1-1,1.289l-5.3-1.515-1.515,5.3a.879.879,0,0,1-.741.63,1.011,1.011,0,0,1-.1.005Zm-6.4-13.993L33.588,54.52l1.18-4.129a.878.878,0,0,1,1.085-.6l4.035,1.153-4.5-7.662a3.935,3.935,0,0,1-4.568-.251,2.262,2.262,0,0,0-2.008-.394A2.287,2.287,0,0,0,27.451,43.663Z" transform="translate(-3.12 -4.977)"/><path class="a" d="M9.785,57.656a.821.821,0,0,1-.1-.006.88.88,0,0,1-.741-.63l-1.515-5.3-5.3,1.515a.877.877,0,0,1-1-1.289L7.258,41.514a.879.879,0,0,1,1.4-.154,2.248,2.248,0,0,0,3.1.277A4.048,4.048,0,0,1,18,43.378a.875.875,0,0,1-.054.75L10.551,57.209a.881.881,0,0,1-.766.447Zm-1.756-7.9a.879.879,0,0,1,.844.637l1.18,4.129,6.136-10.856a2.293,2.293,0,0,0-3.364-.635,3.935,3.935,0,0,1-4.568.251l-4.5,7.662L7.788,49.79a.8.8,0,0,1,.241-.036Zm4.259-7.422H12.3Z" transform="translate(-0.121 -4.977)"/><path class="a" d="M29.687,21.268h-15.8A.878.878,0,0,1,13.1,20l1.756-3.512A.879.879,0,0,1,15.639,16H27.931a.879.879,0,0,1,.786.486L30.472,20a.878.878,0,0,1-.786,1.27ZM15.3,19.512H28.266l-.878-1.756H16.181Z" transform="translate(-1.585 -1.952)"/><path class="a" d="M21.785,32.292a.877.877,0,0,1-.7-.351L13.181,21.4a.878.878,0,0,1,.7-1.4h15.8a.878.878,0,0,1,.7,1.4l-7.9,10.536A.877.877,0,0,1,21.785,32.292ZM15.639,21.756l6.146,8.194,6.146-8.194Z" transform="translate(-1.585 -2.44)"/><path class="a" d="M22.516,31.8a.877.877,0,0,1-.851-.665L19.031,20.6a.874.874,0,0,1,0-.426l.878-3.512a.878.878,0,1,1,1.7.426l-.825,3.3,2.58,10.322a.878.878,0,0,1-.639,1.065.845.845,0,0,1-.213.026Z" transform="translate(-2.317 -1.952)"/><path class="a" d="M22.884,31.8a.85.85,0,0,1-.213-.026.878.878,0,0,1-.639-1.065l2.58-10.322-.824-3.3a.878.878,0,0,1,1.7-.426l.878,3.512a.874.874,0,0,1,0,.426L23.735,31.139A.88.88,0,0,1,22.884,31.8Z" transform="translate(-2.684 -1.952)"/></svg>