<svg xmlns="http://www.w3.org/2000/svg" xmlns:xlink="http://www.w3.org/1999/xlink" width="51.133" height="48.406" viewBox="0 0 51.133 48.406"><defs><style>.a{fill:url(#a);}</style><linearGradient id="a" x1="0.5" x2="0.5" y2="1" gradientUnits="objectBoundingBox"><stop offset="0" stop-color="#2aa9d9"/><stop offset="1" stop-color="#0553ac"/></linearGradient></defs><g transform="translate(0 0)"><g transform="translate(0)"><path class="a" d="M156.166,93.761a1.04,1.04,0,0,0-.7-.444c-1.458,0-14.013-.507-14.013-15.091a.824.824,0,0,0-1.649,0c0,14.584-12.555,15.091-13.95,15.091a.72.72,0,0,0-.507.19c-.127.063-.19.19-.254.254a.941.941,0,0,0,0,.824.88.88,0,0,0,.761.444h.063c1.458,0,13.95.507,13.95,15.091a.824.824,0,1,0,1.649,0c0-14.521,12.492-15.091,13.95-15.091a.967.967,0,0,0,.761-.444A.78.78,0,0,0,156.166,93.761ZM140.63,103.906a14.473,14.473,0,0,0-9.892-9.765,14.473,14.473,0,0,0,9.892-9.765,14.473,14.473,0,0,0,9.892,9.765A14.473,14.473,0,0,0,140.63,103.906Z" transform="translate(-105.185 -66.495)"/><path class="a" d="M63.691,19.381a.854.854,0,0,0,.824-.888.839.839,0,0,0-.824-.824c-.761,0-7.609-.254-7.609-8.243a.824.824,0,1,0-1.649,0c0,7.99-6.848,8.243-7.609,8.243h-.063a.827.827,0,0,0-.761.824.839.839,0,0,0,.824.824c.824,0,7.609.254,7.609,8.243a.839.839,0,0,0,.824.824.731.731,0,0,0,.761-.761c0-7.99,6.848-8.243,7.609-8.243h.063Zm-8.5,3.614a8.5,8.5,0,0,0-4.565-4.5,8.531,8.531,0,0,0,4.565-4.5,8.5,8.5,0,0,0,4.565,4.5A8.531,8.531,0,0,0,55.194,22.995Z" transform="translate(-38.708 -8.601)"/><path class="a" d="M17.691,198.069c-.761,0-7.609-.254-7.609-8.243a.824.824,0,0,0-1.649,0c0,7.99-6.848,8.243-7.609,8.243H.761a.827.827,0,0,0-.761.824.839.839,0,0,0,.824.824c.824,0,7.609.254,7.609,8.243a.839.839,0,0,0,.824.824c.38.127.761-.254.761-.761,0-7.99,6.848-8.243,7.609-8.243h.063a.854.854,0,0,0,.824-.888A.839.839,0,0,0,17.691,198.069Zm-8.5,5.39a8.714,8.714,0,0,0-4.565-4.5,8.531,8.531,0,0,0,4.565-4.5,8.5,8.5,0,0,0,4.565,4.5A8.531,8.531,0,0,0,9.194,203.458Z" transform="translate(0 -160.404)"/></g></g></svg>