<svg xmlns="http://www.w3.org/2000/svg" xmlns:xlink="http://www.w3.org/1999/xlink" width="77.697" height="81.58" viewBox="0 0 77.697 81.58"><defs><style>.a{fill:url(#a);}</style><linearGradient id="a" x1="0.5" x2="0.5" y2="1" gradientUnits="objectBoundingBox"><stop offset="0" stop-color="#2aa9d9"/><stop offset="1" stop-color="#0553ac"/></linearGradient></defs><g transform="translate(-12.186)"><g transform="translate(49.513 9.183)"><path class="a" d="M252.512,57.633H247.93a1.477,1.477,0,0,0-1.476,1.476v5.5a1.477,1.477,0,0,0,1.476,1.476h4.582a1.478,1.478,0,0,0,1.476-1.476v-5.5A1.478,1.478,0,0,0,252.512,57.633Zm-.855,6.119h-2.872V59.964h2.872Z" transform="translate(-246.454 -57.633)"/></g><g transform="translate(58.623 9.183)"><g transform="translate(0)"><path class="a" d="M309.685,57.633H305.1a1.477,1.477,0,0,0-1.476,1.476v5.5a1.477,1.477,0,0,0,1.476,1.476h4.582a1.477,1.477,0,0,0,1.476-1.476v-5.5A1.478,1.478,0,0,0,309.685,57.633Zm-.855,6.119h-2.871V59.964h2.871Z" transform="translate(-303.627 -57.633)"/></g></g><g transform="translate(67.733 9.183)"><path class="a" d="M366.857,57.633h-4.582a1.477,1.477,0,0,0-1.476,1.476v5.5a1.477,1.477,0,0,0,1.476,1.476h4.582a1.478,1.478,0,0,0,1.476-1.476v-5.5A1.478,1.478,0,0,0,366.857,57.633ZM366,63.752H363.13V59.964H366Z" transform="translate(-360.799 -57.633)"/></g><g transform="translate(49.513 22.836)"><path class="a" d="M252.512,143.318H247.93a1.478,1.478,0,0,0-1.476,1.476v5.5a1.477,1.477,0,0,0,1.476,1.476h4.582a1.478,1.478,0,0,0,1.476-1.476v-5.5A1.478,1.478,0,0,0,252.512,143.318Zm-.855,6.119h-2.872v-3.788h2.872Z" transform="translate(-246.454 -143.318)"/></g><g transform="translate(58.623 22.836)"><g transform="translate(0)"><path class="a" d="M309.685,143.318H305.1a1.478,1.478,0,0,0-1.476,1.476v5.5a1.477,1.477,0,0,0,1.476,1.476h4.582a1.477,1.477,0,0,0,1.476-1.476v-5.5A1.478,1.478,0,0,0,309.685,143.318Zm-.855,6.119h-2.871v-3.788h2.871Z" transform="translate(-303.627 -143.318)"/></g></g><g transform="translate(67.733 22.836)"><path class="a" d="M366.857,143.318h-4.582a1.477,1.477,0,0,0-1.476,1.476v5.5a1.477,1.477,0,0,0,1.476,1.476h4.582a1.478,1.478,0,0,0,1.476-1.476v-5.5A1.478,1.478,0,0,0,366.857,143.318ZM366,149.437H363.13v-3.788H366Z" transform="translate(-360.799 -143.318)"/></g><g transform="translate(49.513 36.489)"><path class="a" d="M252.512,229.005H247.93a1.478,1.478,0,0,0-1.476,1.476v5.5a1.477,1.477,0,0,0,1.476,1.476h4.582a1.478,1.478,0,0,0,1.476-1.476v-5.5A1.478,1.478,0,0,0,252.512,229.005Zm-.855,6.119h-2.872v-3.788h2.872Z" transform="translate(-246.454 -229.005)"/></g><g transform="translate(58.623 36.489)"><g transform="translate(0)"><path class="a" d="M309.685,229.005H305.1a1.478,1.478,0,0,0-1.476,1.476v5.5a1.477,1.477,0,0,0,1.476,1.476h4.582a1.477,1.477,0,0,0,1.476-1.476v-5.5A1.478,1.478,0,0,0,309.685,229.005Zm-.855,6.119h-2.871v-3.788h2.871Z" transform="translate(-303.627 -229.005)"/></g></g><g transform="translate(67.733 36.489)"><path class="a" d="M366.857,229.005h-4.582a1.477,1.477,0,0,0-1.476,1.476v5.5a1.478,1.478,0,0,0,1.476,1.476h4.582a1.478,1.478,0,0,0,1.476-1.476v-5.5A1.478,1.478,0,0,0,366.857,229.005ZM366,235.124H363.13v-3.788H366Z" transform="translate(-360.799 -229.005)"/></g><g transform="translate(67.733 50.142)"><path class="a" d="M366.857,314.692h-4.582a1.477,1.477,0,0,0-1.476,1.476v5.5a1.478,1.478,0,0,0,1.476,1.476h4.582a1.478,1.478,0,0,0,1.476-1.476v-5.5A1.477,1.477,0,0,0,366.857,314.692ZM366,320.811H363.13v-3.788H366Z" transform="translate(-360.799 -314.692)"/></g><g transform="translate(12.186)"><path class="a" d="M89.047,55.336a4.853,4.853,0,0,0-6.7-1.3l-3.2,2.145V6.049h.232a1.532,1.532,0,0,0,1.53-1.53V1.53A1.532,1.532,0,0,0,79.372,0H71.93a1.165,1.165,0,0,0,0,2.331h6.642V3.718H45.849V2.331H64.632a1.165,1.165,0,1,0,0-2.331H45.048a1.532,1.532,0,0,0-1.53,1.53V4.519a1.532,1.532,0,0,0,1.53,1.53h.592v14.97H43.247V18.142a1.818,1.818,0,0,0-1.816-1.816h-8.8a1.818,1.818,0,0,0-1.816,1.816v2.876H29.139a1.89,1.89,0,0,0-1.887,1.887V49.634q-.74-.047-1.484-.048H23.931V48.98a4.105,4.105,0,0,0-4.1-4.1H16.287a4.105,4.105,0,0,0-4.1,4.1V65.623a1.165,1.165,0,0,0,2.331,0V48.98a1.772,1.772,0,0,1,1.77-1.77H19.83a1.772,1.772,0,0,1,1.77,1.77V75.2a1.772,1.772,0,0,1-1.77,1.77H16.287a1.772,1.772,0,0,1-1.77-1.77V72.916a1.165,1.165,0,1,0-2.331,0V75.2a4.105,4.105,0,0,0,4.1,4.1H19.83a4.106,4.106,0,0,0,4.1-4.1v-.066l16.138,6.111q.047.018.1.032a7.781,7.781,0,0,0,2.12.3,7.3,7.3,0,0,0,1.139-.089h0l23.821-3.434.018,0a11.725,11.725,0,0,0,5.555-2.489l.043-.037,15.4-13.847A4.855,4.855,0,0,0,89.047,55.336ZM47.971,6.049H76.809V57.744l-9.7,6.49-3.251-.182-.083-.832a7.122,7.122,0,0,0-.4-1.754q-.1-.277-.226-.544a7.056,7.056,0,0,0-1.745-2.329h3.275a1.477,1.477,0,0,0,1.476-1.476v-5.5a1.477,1.477,0,0,0-1.476-1.476H60.1a1.477,1.477,0,0,0-1.476,1.476v5.472a7.2,7.2,0,0,0-.906-.189l-.03,0-.641-.074V51.618a1.478,1.478,0,0,0-1.476-1.476H50.989a1.477,1.477,0,0,0-1.476,1.476v4.338l-1.543-.178V6.049ZM60.954,56.261V52.473h2.871v3.788Zm-6.238-3.788v3.788H52.157l-.313-.036V52.473ZM33.145,18.657h7.771v2.362H33.145Zm-3.562,4.693H45.64v3.645H32.477a1.368,1.368,0,0,0-1.366,1.366V31.88a1.368,1.368,0,0,0,1.366,1.366H45.64v3.279H32.477a1.368,1.368,0,0,0-1.366,1.366V41.41a1.368,1.368,0,0,0,1.366,1.366H45.64v3.279H32.477a1.368,1.368,0,0,0-1.366,1.366V50.2q-.3-.069-.6-.13l-.282-.056c-.11-.021-.221-.041-.332-.061s-.212-.04-.318-.057V23.349ZM45.64,29.325v1.59h-12.2v-1.59Zm0,9.531v1.59h-12.2v-1.59Zm-12.2,11.121v-1.59h12.2v1.59Zm12.2,2.331v3.2l-.359-.041a21.223,21.223,0,0,1-2.225-.44,20.935,20.935,0,0,1-4.1-1.507q-.262-.129-.52-.266-.423-.223-.837-.464c-.2-.119-.409-.233-.615-.346l-.134-.072-.123-.066H45.64Zm41.066,7.636L71.326,73.776a9.391,9.391,0,0,1-4.42,1.975L43.085,79.185l-.032,0a5.227,5.227,0,0,1-2.207-.141L23.931,72.644V51.917h1.837a21.054,21.054,0,0,1,2.522.154q.254.031.507.067l.073.011q.639.095,1.267.228c.13.028.261.055.39.085l.194.046c.169.041.338.083.506.128l.091.024a21.108,21.108,0,0,1,3.826,1.455l.11.055q.234.118.465.242l.141.075c.186.1.37.2.553.311l.008,0q.743.435,1.51.812a23.3,23.3,0,0,0,7.037,2.163l.03,0,1.673.193,1.363.157,3.143.362.78.09h0l5.447.627a4.747,4.747,0,0,1,4.054,4.238l.04.406L39.654,61.727a1.166,1.166,0,0,0-.226,2.32L62.586,66.3a1.137,1.137,0,0,0,.148.019l4.636.26.065,0c.023,0,.046,0,.069-.005s.053,0,.079-.006.066-.012.1-.019.052-.01.077-.017.069-.024.1-.037.044-.015.064-.025a1.177,1.177,0,0,0,.157-.088l10.538-7.053h0l5.02-3.359a2.512,2.512,0,0,1,3.063,3.968Z" transform="translate(-12.186)"/></g></g></svg>