<svg xmlns="http://www.w3.org/2000/svg" xmlns:xlink="http://www.w3.org/1999/xlink" width="78" height="82.573" viewBox="0 0 78 82.573"><defs><style>.a{fill:url(#a);}</style><linearGradient id="a" x1="0.5" x2="0.5" y2="1" gradientUnits="objectBoundingBox"><stop offset="0" stop-color="#2aa9d9"/><stop offset="1" stop-color="#0553ac"/></linearGradient></defs><g transform="translate(0 -0.001)"><g transform="translate(0 0.001)"><g transform="translate(0 0)"><path class="a" d="M74.1,49.545H62.4V28.9H74.1a1.34,1.34,0,0,0,1.3-1.376V20.741L77.987,1.573a1.366,1.366,0,0,0-1.1-1.558A1.232,1.232,0,0,0,76.7,0H40.3A1.34,1.34,0,0,0,39,1.377a1.459,1.459,0,0,0,.013.2L41.6,20.741v6.785A1.34,1.34,0,0,0,42.9,28.9H54.6V49.545H53.3a4.135,4.135,0,0,0,0,8.257h1.3v2.752H45.5l1.213-19.267H48.1a1.34,1.34,0,0,0,1.3-1.376v-5.5a1.34,1.34,0,0,0-1.3-1.376H38.9a9.667,9.667,0,0,0-4.6-7.05A9.869,9.869,0,0,0,29.73,13.243,8.9,8.9,0,0,0,17.7,18.078a10.063,10.063,0,0,0-.717,2.649c-7.127-.816-13.529,4.638-14.3,12.183,0,.04-.008.081-.012.121H1.3A1.34,1.34,0,0,0,0,34.407v5.5a1.34,1.34,0,0,0,1.3,1.376H2.684l2.515,40a1.333,1.333,0,0,0,1.3,1.285H76.7A1.34,1.34,0,0,0,78,81.2V53.673A4.019,4.019,0,0,0,74.1,49.545ZM41.8,2.753h5v8.257h2.6V2.753H52V5.506h2.6V2.753h7.8V6.882H65V2.753h2.6v8.257h2.6V2.753h5L72.973,19.268H44.027Zm2.4,23.4V22.02H72.8v4.129ZM59.8,28.9V49.545H57.2V28.9Zm-13,6.881v2.752H27.3V35.783Zm-29.938-12.3a9.858,9.858,0,0,1,1.063.2h.043a10.226,10.226,0,0,1,4.169,2.159l1.635-2.14a12.848,12.848,0,0,0-4.2-2.386,6.587,6.587,0,0,1,7.124-6.11,6.777,6.777,0,0,1,5.772,7.541A7.121,7.121,0,0,1,31.4,25.857a1.427,1.427,0,0,0,.357,1.909,1.284,1.284,0,0,0,.293.155,6.773,6.773,0,0,1,4.2,5.109H26a1.34,1.34,0,0,0-1.3,1.376V46.792a1.3,1.3,0,1,1-2.6,0V44.04a4.019,4.019,0,0,0-3.9-4.129,4.019,4.019,0,0,0-3.9,4.129v9.633a1.3,1.3,0,1,1-2.6,0V34.406a1.34,1.34,0,0,0-1.3-1.376H5.287C5.993,27.01,11.175,22.736,16.861,23.483ZM2.6,38.535V35.783H9.1v2.752ZM36.4,64.683V79.821H7.717L5.29,41.287H9.1V53.673A4.019,4.019,0,0,0,13,57.8a4.019,4.019,0,0,0,3.9-4.129V44.04a1.3,1.3,0,1,1,2.6,0v2.752a4.019,4.019,0,0,0,3.9,4.129,4.019,4.019,0,0,0,3.9-4.129v-5.5H44.11L42.9,60.554H40.3A4.019,4.019,0,0,0,36.4,64.683Zm39,15.138H71.5V72.94H68.9v6.881H65V72.94H62.4v6.881H58.5V72.94H55.9v6.881H52V72.94H49.4v6.881H45.5V72.94H42.9v6.881H39V68.812H75.4Zm0-13.762H39V64.683a1.34,1.34,0,0,1,1.3-1.376H68.9a4.135,4.135,0,0,0,0-8.257H53.3a1.378,1.378,0,0,1,0-2.752H74.1a1.34,1.34,0,0,1,1.3,1.376Zm-18.2-5.5V57.8h2.6v2.752Zm5.2,0V57.8h6.5a1.378,1.378,0,0,1,0,2.752Z" transform="translate(0 -0.001)"/></g></g><g transform="translate(0 10.401)"><path class="a" d="M5.2,66.6V64H2.6v2.6H0v2.6H2.6v2.6H5.2V69.2H7.8V66.6Z" transform="translate(0 -64.001)"/></g><g transform="translate(68.9 36.003)"><path class="a" d="M429.2,210.6V208h-2.6v2.6H424v2.6h2.6v2.6h2.6v-2.6h2.6v-2.6Z" transform="translate(-424 -208.001)"/></g><g transform="translate(19.5 0.001)"><g transform="translate(0 0)"><path class="a" d="M125.2,2.6V0h-2.6V2.6H120V5.2h2.6V7.8h2.6V5.2h2.6V2.6Z" transform="translate(-120 -0.001)"/></g></g><g transform="translate(47 13.794)"><g transform="translate(0 0)"><rect class="a" width="2" height="3" transform="translate(0 0.207)"/></g></g></g></svg>