<svg xmlns="http://www.w3.org/2000/svg" xmlns:xlink="http://www.w3.org/1999/xlink" width="54.569" height="47.734" viewBox="0 0 54.569 47.734"><defs><style>.a{fill:url(#a);}</style><linearGradient id="a" x1="0.5" x2="0.5" y2="1" gradientUnits="objectBoundingBox"><stop offset="0" stop-color="#2a82d9"/><stop offset="1" stop-color="#054685"/></linearGradient></defs><g transform="translate(0 0)"><g transform="translate(29.787 35.131)"><g transform="translate(0 0)"><path class="a" d="M283.27,361.686h-2.991a.8.8,0,1,0,0,1.6h2.991a.8.8,0,1,0,0-1.6Z" transform="translate(-279.479 -361.686)"/></g></g><g transform="translate(23.525 0)"><g transform="translate(0 0)"><path class="a" d="M248.389,58.639l-4.353-1.679-2.219-2.219a.8.8,0,0,0-.514-.232V52.743a8.244,8.244,0,0,0,2.091-4.119,2.287,2.287,0,0,0,.561-.045,2.366,2.366,0,0,0,1.836-2.346v-.583a2.4,2.4,0,0,0-.7-1.7c.706-3.839.124-6.968-1.689-9.062-1.754-2.025-4.58-2.993-8.172-2.8a10.706,10.706,0,0,0-6.139,2.265,4.212,4.212,0,0,0-1.645.559,4.254,4.254,0,0,0-1.946,3.957,19.962,19.962,0,0,0,.554,4.643,2.369,2.369,0,0,0-1.3,2.145v.574a2.366,2.366,0,0,0,1.836,2.346,2.282,2.282,0,0,0,.561.045,8.244,8.244,0,0,0,2.091,4.119v1.766a.8.8,0,0,0-.514.232L226.5,56.96l-4.353,1.679a5.293,5.293,0,0,0-1.069.56.8.8,0,1,0,.9,1.322,3.7,3.7,0,0,1,.746-.39l4.04-1.558,3.089,4.633a2.287,2.287,0,0,0,1.683,1.011c.076.008.153.011.229.011a2.282,2.282,0,0,0,1.125-.3l-.663,15.035a.8.8,0,0,0,.763.834h.036a.8.8,0,0,0,.8-.764l.615-13.956H236.1l.615,13.956a.8.8,0,0,0,.8.764h.036a.8.8,0,0,0,.763-.834l-.663-15.035a2.281,2.281,0,0,0,1.125.3c.076,0,.152,0,.229-.011a2.287,2.287,0,0,0,1.683-1.011l3.089-4.633,4.04,1.558a3.679,3.679,0,0,1,1.438,1L246.487,63.9a5.252,5.252,0,0,0-1.548,3.738V79a.8.8,0,1,0,1.6,0V67.635a3.664,3.664,0,0,1,1.08-2.608l2.426-2.426a3.683,3.683,0,0,1,.128,1.117l-.619,15.249a.8.8,0,0,0,.766.831h.033a.8.8,0,0,0,.8-.767l.619-15.25A5.285,5.285,0,0,0,248.389,58.639ZM228.708,48.3a1.556,1.556,0,0,0-1.619-1.269.686.686,0,0,1-.186-.013.775.775,0,0,1-.558-.78V45.66a.758.758,0,0,1,.564-.76.7.7,0,0,1,.684.262,1.115,1.115,0,0,0,1.532.24,5.8,5.8,0,0,0,1.311-1.282.8.8,0,0,0-1.283-.954,4.243,4.243,0,0,1-.622.673,2.287,2.287,0,0,0-.867-.463,18.384,18.384,0,0,1-.571-4.505,2.8,2.8,0,0,1,1.122-2.557,2.6,2.6,0,0,1,1.195-.383.807.807,0,0,0,.552-.221,9,9,0,0,1,5.35-2.024c3.08-.166,5.458.611,6.877,2.249s1.906,4.186,1.389,7.358a3.464,3.464,0,0,0-.682.048l-.751-1.8a.8.8,0,0,0-.94-.466c-.074.019-7.456,1.891-10.551-1.963a.8.8,0,1,0-1.246,1c3.161,3.935,9.432,3.079,11.52,2.662l.581,1.395a1.314,1.314,0,0,0,1.518.778,1.726,1.726,0,0,1,.6-.044.754.754,0,0,1,.567.75v.583a.775.775,0,0,1-.558.78.678.678,0,0,1-.186.013,1.557,1.557,0,0,0-1.619,1.269,6.671,6.671,0,0,1-13.121,0Zm3.546,14.13a.7.7,0,0,1-1.072-.106l-3.112-4.667,1.251-1.251,4.777,4.18Zm2.255,1.056.048-1.1.711-.711.711.711.048,1.1Zm.759-4L230.833,55.6v-1.53a8.273,8.273,0,0,0,8.871,0V55.6Zm4.086,2.84a.7.7,0,0,1-1.072.106l-1.845-1.845,4.777-4.18,1.251,1.251Z" transform="translate(-220.729 -32.066)"/></g></g><path class="a" d="M25.35,62.826l-3.9-1.7-2.134-2.134a.8.8,0,0,0-.514-.232V57.5a8.256,8.256,0,0,0,3.587-5.375,2.3,2.3,0,0,0,.631-.06,2.379,2.379,0,0,0,1.765-2.331v-.583a2.383,2.383,0,0,0-1.024-1.966,9.039,9.039,0,0,0,.276-2.215,9.32,9.32,0,0,0-4.488-7.9,5.183,5.183,0,0,0-5.285-5,5.183,5.183,0,0,0-5.285,5,9.32,9.32,0,0,0-4.488,7.9,9.039,9.039,0,0,0,.275,2.208,2.389,2.389,0,0,0-1.023,1.981v.574A2.379,2.379,0,0,0,5.5,52.064a2.292,2.292,0,0,0,.631.06A8.256,8.256,0,0,0,9.722,57.5v1.258a.8.8,0,0,0-.514.232L7.075,61.122l-3.9,1.7A5.32,5.32,0,0,0,0,67.895L.477,79.032a.8.8,0,0,0,.8.766H1.31a.8.8,0,0,0,.765-.833L1.6,67.827a3.681,3.681,0,0,1,.507-2.013l2.1,2.518a4.444,4.444,0,0,1,1.028,2.84V79a.8.8,0,0,0,1.6,0V71.171a6.046,6.046,0,0,0-1.4-3.863L3.2,64.631a3.625,3.625,0,0,1,.607-.34l3.4-1.485,2.4,3.9a1.547,1.547,0,0,0,2.322.365l1.523-1.3V79a.8.8,0,0,0,1.6,0V65.774l1.523,1.3a1.545,1.545,0,0,0,1,.37,1.561,1.561,0,0,0,.241-.019,1.545,1.545,0,0,0,1.077-.717l2.4-3.9,3.4,1.485a3.629,3.629,0,0,1,.607.34l-2.23,2.677a6.046,6.046,0,0,0-1.4,3.863V79a.8.8,0,0,0,1.6,0V71.171a4.444,4.444,0,0,1,1.028-2.84l2.1-2.518a3.681,3.681,0,0,1,.507,2.013l-.472,11.137a.8.8,0,0,0,.765.832h.034a.8.8,0,0,0,.8-.766l.472-11.137A5.32,5.32,0,0,0,25.35,62.826ZM14.261,33.662a3.662,3.662,0,0,1,3.56,2.555,10.137,10.137,0,0,0-7.119,0A3.662,3.662,0,0,1,14.261,33.662ZM7.7,51.795a1.557,1.557,0,0,0-1.619-1.269.691.691,0,0,1-.209-.018.781.781,0,0,1-.535-.775v-.574A.758.758,0,0,1,5.9,48.4a.7.7,0,0,1,.684.262,1.115,1.115,0,0,0,1.532.241,5.8,5.8,0,0,0,1.294-1.259.8.8,0,0,0-1.278-.96,4.238,4.238,0,0,1-.61.656,2.29,2.29,0,0,0-1.206-.531,7.445,7.445,0,0,1-.231-1.837,8,8,0,0,1,8.175-7.8,8,8,0,0,1,8.175,7.8,7.442,7.442,0,0,1-.231,1.834,3.666,3.666,0,0,0-.622.1l-.6-.494a1.535,1.535,0,0,0-1.067-.35c-1.175.069-7.192.228-10.279-3.466a.8.8,0,0,0-1.227,1.025,11.424,11.424,0,0,0,6.637,3.662,19.565,19.565,0,0,0,4.936.376l.937.771a.8.8,0,0,0,.909.074,1.764,1.764,0,0,1,.788-.1.754.754,0,0,1,.567.75v.583a.781.781,0,0,1-.535.775.683.683,0,0,1-.209.018,1.558,1.558,0,0,0-1.619,1.269,6.671,6.671,0,0,1-13.121,0Zm3.246,14.023-2.4-3.9,1.232-1.232,3.31,3.31Zm3.315-2.908-2.94-2.94V58.317a8.264,8.264,0,0,0,5.88,0V59.97Zm3.315,2.908-2.138-1.824,3.31-3.31,1.232,1.232Z" transform="translate(0 -32.063)"/><g transform="translate(8.226 38.657)"><path class="a" d="M80.227,394.766H77.983a.8.8,0,1,0,0,1.6h2.244a.8.8,0,1,0,0-1.6Z" transform="translate(-77.184 -394.766)"/></g></g></svg>