<svg xmlns="http://www.w3.org/2000/svg" xmlns:xlink="http://www.w3.org/1999/xlink" width="48.533" height="48.532" viewBox="0 0 48.533 48.532"><defs><style>.a{fill:url(#a);}</style><linearGradient id="a" x1="0.5" x2="0.5" y2="1" gradientUnits="objectBoundingBox"><stop offset="0" stop-color="#2a82d9"/><stop offset="1" stop-color="#054685"/></linearGradient></defs><g transform="translate(0)"><path class="a" d="M46.5,19.437a5.45,5.45,0,0,0,3.029-4.9V10.393a5.486,5.486,0,0,0-5.145-5.469L42.526,3.063A7,7,0,0,0,37.546,1H33.939a5.541,5.541,0,0,0-3.461,9.868l1.332,1.065a36.2,36.2,0,0,0-.28,3.94v.783h1.566V17.2a4.151,4.151,0,0,0,4.151,4.151h.212c.112,0,.222-.024.333-.033v2.835l-1.454.291a1.569,1.569,0,0,0-.881.517l-.94,1.1a15.626,15.626,0,0,0-2.371,3.747l-4.53,4.529V31.384A10.816,10.816,0,0,0,16.8,20.569h-.145V19.76a4.74,4.74,0,0,0,4.079-2.976,8.578,8.578,0,0,0,.618-3.2V10.393a3.878,3.878,0,0,0-.326-1.555,6.059,6.059,0,0,0,1.892-4.383A3.456,3.456,0,0,0,19.463,1h-6.3A7.477,7.477,0,0,0,7.823,3.247,7.993,7.993,0,0,0,5.7,8.828a6.645,6.645,0,0,0,2.368,5.094,4.527,4.527,0,0,0,1.317,2.829l.229.229v3.6A8.833,8.833,0,0,0,1,29.416v6.809a8.6,8.6,0,0,0,3.131,6.637v6.67H22.918v-4.7h2.1A7,7,0,0,0,30,42.772l.744-.744v7.5H49.533V29.849a6.932,6.932,0,0,0-3.832-6.2l-.866-.433V20.27ZM31.455,9.645a3.975,3.975,0,0,1,2.484-7.079h3.607a5.445,5.445,0,0,1,3.875,1.6l2.308,2.309h.324a3.918,3.918,0,0,1,3.914,3.914v4.142a3.892,3.892,0,0,1-2.164,3.5l-1.562.781a4.254,4.254,0,0,1-.8-1.61,6.189,6.189,0,0,1-.155-.916,3.463,3.463,0,0,0,1.546-2.767A3.134,3.134,0,0,0,41.7,10.393H41.6a3.049,3.049,0,0,0-.958-1.457,6.6,6.6,0,0,0-4.415-1.674,8.882,8.882,0,0,0-3.481.865L32.4,8.3l-.075.375c-.1.5-.187.988-.264,1.458ZM38.09,26.832H37l0-.924,1.717-.343ZM37.231,35.8l-.982-1.767L36.92,28.4h1.025l1.119,5.033A14.78,14.78,0,0,1,37.231,35.8Zm2.953-4.544L39.4,27.716l1.27-2.54,1.45-.29-1.354,4.739A15.046,15.046,0,0,1,40.184,31.254Zm-.827-10.2,2.5-.5L41.55,19.02l-3.587.718a2.608,2.608,0,0,1-.506.049h-.212A2.586,2.586,0,0,1,34.66,17.2V15.09H33.117a41.45,41.45,0,0,1,.668-5.712,6.912,6.912,0,0,1,2.441-.55,5.053,5.053,0,0,1,3.38,1.284,1.348,1.348,0,0,1,.534,1.065v.783H41.7a1.567,1.567,0,0,1,1.566,1.566,2.13,2.13,0,0,1-1.133,1.648l-.433.217v.484a7.231,7.231,0,0,0,.219,1.7A5.853,5.853,0,0,0,43.27,20.1v2.96l-3.914.783Zm-3.914,6.357v.157l-.492,4.126-1.058-1.9A14.025,14.025,0,0,1,35.442,27.412Zm-9.393,3.972V35.9l-.419.419a2.366,2.366,0,0,1-1.662.688h-1.05v-4.7H21.352v4.7H15.09V34.815l4.975-12.084a9.247,9.247,0,0,1,5.984,8.653Zm-3.131,9.623a2.266,2.266,0,0,1-2.249,2.264H18.221v-4.7h2.353A2.377,2.377,0,0,1,22.918,41.006ZM15.389,22.135,14.606,23.7H13.225l-.783-1.566Zm1,5.4L15.9,24.606l1.228-2.456a9.265,9.265,0,0,1,1.415.155Zm-5.7-5.4,1.235,2.47-.389,2.333L9.3,22.177c.183-.014.363-.042.548-.042ZM13.4,25.266h1.022l.836,5.016-1,2.438L12.71,29.429Zm6.382-11.687a7.019,7.019,0,0,1-.506,2.623,3.212,3.212,0,0,1-4.764,1.48l-1.342-.895-.868,1.3,1.342.895a4.77,4.77,0,0,0,1.44.637v.947H11.175V16.332l-.688-.688a2.98,2.98,0,0,1-.877-2.119.784.784,0,0,1,.783-.783h.783V10.393a2.351,2.351,0,0,1,2.348-2.348h3.914a2.351,2.351,0,0,1,2.348,2.348ZM8.493,12.148A5.042,5.042,0,0,1,7.262,8.828,6.432,6.432,0,0,1,8.98,4.3a5.881,5.881,0,0,1,4.182-1.738h6.3a1.89,1.89,0,0,1,1.89,1.89A4.48,4.48,0,0,1,20.1,7.542a3.887,3.887,0,0,0-2.663-1.063H13.524a3.918,3.918,0,0,0-3.914,3.914v.917A2.357,2.357,0,0,0,8.493,12.148ZM2.566,36.225V29.416A7.263,7.263,0,0,1,7.7,22.461l5.822,12.373v2.173h-4.7v-4.7H7.262v4.7a1.565,1.565,0,0,0,1.561,1.566h7.832v4.7H9.611a7.053,7.053,0,0,1-7.045-7.045ZM21.352,47.967H5.7V43.885a8.545,8.545,0,0,0,3.914.95H21.352Zm7.543-6.3a5.444,5.444,0,0,1-3.875,1.6h-1.3a3.912,3.912,0,0,0-.049-4.7h.293a3.946,3.946,0,0,0,2.769-1.147l4.345-4.345a15.558,15.558,0,0,0-.337,3.166v3.568Zm3.416-5.418a14.081,14.081,0,0,1,.8-4.645l2.946,5.3c-.107.091-.208.187-.319.276l-.294.236V47.967H32.311ZM45,25.05a5.366,5.366,0,0,1,2.966,4.8V47.967h-4.7V35.442H41.7V47.967h-4.7V38.162a16.4,16.4,0,0,0,5.261-8.106l1.576-5.515.1-.02Z" transform="translate(-1 -1)"/><ellipse class="a" cx="0.5" cy="1" rx="0.5" ry="1" transform="translate(38 42.133)"/><ellipse class="a" cx="0.5" cy="1" rx="0.5" ry="1" transform="translate(38 39.133)"/></g></svg>